<svg width="300" height="300" viewBox="0 0 300 300" fill="none" xmlns="http://www.w3.org/2000/svg">
<path d="M111.74 241.247V244.655H117.236V247.823H111.74V251.519H117.956V254.807H107.636V237.959H117.956V241.247H111.74ZM126.069 254.999C124.901 254.999 123.861 254.799 122.949 254.399C122.037 253.999 121.317 253.455 120.789 252.767C120.261 252.063 119.965 251.279 119.901 250.415H123.957C124.005 250.879 124.221 251.255 124.605 251.543C124.989 251.831 125.461 251.975 126.021 251.975C126.533 251.975 126.925 251.879 127.197 251.687C127.485 251.479 127.629 251.215 127.629 250.895C127.629 250.511 127.429 250.231 127.029 250.055C126.629 249.863 125.981 249.655 125.085 249.431C124.125 249.207 123.325 248.975 122.685 248.735C122.045 248.479 121.493 248.087 121.029 247.559C120.565 247.015 120.333 246.287 120.333 245.375C120.333 244.607 120.541 243.911 120.957 243.287C121.389 242.647 122.013 242.143 122.829 241.775C123.661 241.407 124.645 241.223 125.781 241.223C127.461 241.223 128.781 241.639 129.741 242.471C130.717 243.303 131.277 244.407 131.421 245.783H127.629C127.565 245.319 127.357 244.951 127.005 244.679C126.669 244.407 126.221 244.271 125.661 244.271C125.181 244.271 124.813 244.367 124.557 244.559C124.301 244.735 124.173 244.983 124.173 245.303C124.173 245.687 124.373 245.975 124.773 246.167C125.189 246.359 125.829 246.551 126.693 246.743C127.685 246.999 128.493 247.255 129.117 247.511C129.741 247.751 130.285 248.151 130.749 248.711C131.229 249.255 131.477 249.991 131.493 250.919C131.493 251.703 131.269 252.407 130.821 253.031C130.389 253.639 129.757 254.119 128.925 254.471C128.109 254.823 127.157 254.999 126.069 254.999ZM141.468 251.327V254.807H139.38C137.892 254.807 136.732 254.447 135.9 253.727C135.068 252.991 134.652 251.799 134.652 250.151V244.823H133.02V241.415H134.652V238.151H138.756V241.415H141.444V244.823H138.756V250.199C138.756 250.599 138.852 250.887 139.044 251.063C139.236 251.239 139.556 251.327 140.004 251.327H141.468ZM147.858 243.647C148.338 242.911 148.938 242.335 149.658 241.919C150.378 241.487 151.178 241.271 152.058 241.271V245.615H150.93C149.906 245.615 149.138 245.839 148.626 246.287C148.114 246.719 147.858 247.487 147.858 248.591V254.807H143.754V241.415H147.858V243.647ZM153.203 248.087C153.203 246.711 153.459 245.503 153.971 244.463C154.499 243.423 155.211 242.623 156.107 242.063C157.003 241.503 158.003 241.223 159.107 241.223C160.051 241.223 160.875 241.415 161.579 241.799C162.299 242.183 162.851 242.687 163.235 243.311V241.415H167.339V254.807H163.235V252.911C162.835 253.535 162.275 254.039 161.555 254.423C160.851 254.807 160.027 254.999 159.083 254.999C157.995 254.999 157.003 254.719 156.107 254.159C155.211 253.583 154.499 252.775 153.971 251.735C153.459 250.679 153.203 249.463 153.203 248.087ZM163.235 248.111C163.235 247.087 162.947 246.279 162.371 245.687C161.811 245.095 161.123 244.799 160.307 244.799C159.491 244.799 158.795 245.095 158.219 245.687C157.659 246.263 157.379 247.063 157.379 248.087C157.379 249.111 157.659 249.927 158.219 250.535C158.795 251.127 159.491 251.423 160.307 251.423C161.123 251.423 161.811 251.127 162.371 250.535C162.947 249.943 163.235 249.135 163.235 248.111ZM177.772 251.327V254.807H175.684C174.196 254.807 173.036 254.447 172.204 253.727C171.372 252.991 170.956 251.799 170.956 250.151V244.823H169.324V241.415H170.956V238.151H175.06V241.415H177.748V244.823H175.06V250.199C175.06 250.599 175.156 250.887 175.348 251.063C175.54 251.239 175.86 251.327 176.308 251.327H177.772ZM186.154 254.999C184.842 254.999 183.658 254.719 182.602 254.159C181.562 253.599 180.738 252.799 180.13 251.759C179.538 250.719 179.242 249.503 179.242 248.111C179.242 246.735 179.546 245.527 180.154 244.487C180.762 243.431 181.594 242.623 182.65 242.063C183.706 241.503 184.89 241.223 186.202 241.223C187.514 241.223 188.698 241.503 189.754 242.063C190.81 242.623 191.642 243.431 192.25 244.487C192.858 245.527 193.162 246.735 193.162 248.111C193.162 249.487 192.85 250.703 192.226 251.759C191.618 252.799 190.778 253.599 189.706 254.159C188.65 254.719 187.466 254.999 186.154 254.999ZM186.154 251.447C186.938 251.447 187.602 251.159 188.146 250.583C188.706 250.007 188.986 249.183 188.986 248.111C188.986 247.039 188.714 246.215 188.17 245.639C187.642 245.063 186.986 244.775 186.202 244.775C185.402 244.775 184.738 245.063 184.21 245.639C183.682 246.199 183.418 247.023 183.418 248.111C183.418 249.183 183.674 250.007 184.186 250.583C184.714 251.159 185.37 251.447 186.154 251.447Z" fill="#101010"/>
<path opacity="0.7" d="M71.151 78.979C75.1492 64.6743 90.4848 49.9703 105.404 46.1368L198.418 22.2368C213.337 18.4033 222.19 26.8919 218.192 41.1967L193.265 130.379C189.267 144.684 173.932 159.388 159.012 163.221L65.9987 187.121C51.0794 190.955 42.2261 182.466 46.2243 168.161L71.151 78.979Z" fill="#101010"/>
<path opacity="0.7" d="M108.427 114.73C112.426 100.425 127.761 85.7214 142.681 81.8878L235.694 57.9879C250.613 54.1544 259.467 62.643 255.468 76.9478L230.542 166.13C226.544 180.435 211.208 195.139 196.289 198.972L103.275 222.872C88.3559 226.706 79.5026 218.217 83.5008 203.912L108.427 114.73Z" fill="#101010"/>
</svg>
