<svg width="300" height="300" viewBox="0 0 300 300" fill="none" xmlns="http://www.w3.org/2000/svg">
<path opacity="0.7" d="M43.1329 89.0603C48.4943 69.0553 69.0585 48.492 89.0644 43.1309L213.79 9.70719C233.796 4.34607 245.668 16.2173 240.307 36.2222L206.882 160.942C201.52 180.947 180.956 201.511 160.95 206.872L36.2239 240.295C16.218 245.657 4.34625 233.785 9.70763 213.78L43.1329 89.0603Z" fill="#E9E9E9"/>
<path opacity="0.7" d="M93.1186 139.058C98.48 119.053 119.044 98.4894 139.05 93.1282L263.776 59.7046C283.782 54.3434 295.654 66.2146 290.292 86.2196L256.867 210.94C251.506 230.945 230.941 251.508 210.936 256.869L86.2097 290.293C66.2037 295.654 54.332 283.783 59.6934 263.778L93.1186 139.058Z" fill="#E9E9E9"/>
</svg>
